OpenSim_Sub09_CSBaseline_RCS.mot
version=1
nRows=81
nColumns=11
inDegrees=no
endheader
time	Top_Thigh	Med_Thigh	Bot_Thigh	Top_Shank	2nd_Top_Shank	2nd_Bot_Shank	Bot_Shank	BNOx	BNOy	BNOZ
0	2200.88464406	2156.07632899	1865.46934348	1322.72913345	1530.48128587	1320.29669178	1315.98324444	176.15611108	-76.33872518	163.71054178
0.01000000	2201.28256132	2157.00863337	1865.70178254	1323.70807783	1530.19468481	1320.04876633	1316.25858768	176.04713813	-76.36324430	163.88138610
0.02000000	2201.61410114	2158.65792981	1865.87440263	1324.61464651	1529.84890816	1319.74199990	1316.52917887	175.94102613	-76.38872691	164.05299080
0.03000000	2201.86218773	2161.08930104	1865.97671107	1325.41038299	1529.43588563	1319.37721986	1316.78658293	175.83853028	-76.41522933	164.22503909
0.04000000	2202.00975009	2164.36778302	1865.99821909	1326.05683935	1528.94755202	1318.95525632	1317.02236646	175.74040561	-76.44280784	164.39721412
0.05000000	2202.04609263	2168.49629388	1865.93363135	1326.52694779	1528.38264335	1318.48058611	1317.23032396	175.64717562	-76.47146078	164.56910473
0.06000000	2201.97946345	2173.29317727	1865.79308404	1326.82745494	1527.76010447	1317.96852175	1317.41086987	175.55867585	-76.50101436	164.74001962
0.07000000	2201.82161301	2178.54265183	1865.58956636	1326.97135924	1527.10261653	1317.43637912	1317.56564252	175.47461465	-76.53126296	164.90921566
0.08000000	2201.58429181	2184.02893622	1865.33606754	1326.97165911	1526.43286068	1316.90147410	1317.69628028	175.39470034	-76.56200095	165.07594973
0.09000000	2201.27925032	2189.53624907	1865.04557681	1326.84135297	1525.77351809	1316.38112254	1317.80442150	175.31864128	-76.59302272	165.23947872
0.10000000	2200.91823903	2194.84880903	1864.73108339	1326.59343923	1525.14726989	1315.89264034	1317.89170453	175.24614582	-76.62412264	165.39905951
0.11000000	2200.51300842	2199.75083475	1864.40557650	1326.24091633	1524.57679725	1315.45334336	1317.95976773	175.17692228	-76.65509509	165.55394898
0.12000000	2200.07530897	2204.02654488	1864.08204536	1325.79678269	1524.08478131	1315.08054748	1318.01024944	175.11067903	-76.68573445	165.70340401
0.13000000	2199.61689116	2207.46015806	1863.77347921	1325.27403673	1523.69390324	1314.79156857	1318.04478803	175.04712440	-76.71583510	165.84668149
0.14000000	2199.14950547	2209.83589294	1863.49286725	1324.68567687	1523.42684417	1314.60372251	1318.06502183	174.98596673	-76.74519142	165.98303830
0.15000000	2198.68490238	2210.93796817	1863.25319873	1324.04470153	1523.30628527	1314.53432517	1318.07258921	174.92691437	-76.77359778	166.11173132
0.16000000	2198.23483237	2210.55060239	1863.06746284	1323.36410914	1523.35490768	1314.60069243	1318.06912852	174.86967566	-76.80084857	166.23201743
0.17000000	2197.81104594	2208.45801425	1862.94864884	1322.65689813	1523.59539257	1314.82014015	1318.05627811	174.81395894	-76.82673816	166.34315352
0.18000000	2197.42529354	2204.44442240	1862.90974592	1321.93606690	1524.05042107	1315.20998422	1318.03567633	174.75947256	-76.85106093	166.44439647
0.19000000	2197.08932568	2198.29404548	1862.96374333	1321.21461389	1524.74267435	1315.78754051	1318.00896154	174.70592487	-76.87361127	166.53500316
0.20000000	2196.81441522	2189.83016808	1863.12186910	1320.50556588	1525.68984121	1316.56684892	1317.97793792	174.65305268	-76.89420852	166.61434271
0.21000000	2196.60690449	2179.27937662	1863.37716957	1319.82224252	1526.85807130	1317.52812957	1317.94612169	174.60088685	-76.91293001	166.68294296
0.22000000	2196.47022702	2167.10618390	1863.71196485	1319.17813620	1528.18310897	1318.63165067	1317.91803906	174.54963169	-76.93000517	166.74201533
0.23000000	2196.40777875	2153.77817793	1864.10843640	1318.58674157	1529.60030557	1319.83742260	1317.89822929	174.49949377	-76.94566546	166.79278007
0.24000000	2196.42295565	2139.76294668	1864.54876570	1318.06155326	1531.04501245	1321.10545570	1317.89123165	174.45067963	-76.96014231	166.83645744
0.25000000	2196.51915365	2125.52807814	1865.01513421	1317.61606591	1532.45258097	1322.39576034	1317.90158540	174.40339584	-76.97366714	166.87426768
0.26000000	2196.69976869	2111.54116030	1865.48972341	1317.26377416	1533.75836249	1323.66834687	1317.93382981	174.35784894	-76.98647138	166.90743105
0.27000000	2196.96819674	2098.26978115	1865.95471476	1317.01817265	1534.89770835	1324.88322565	1317.99250416	174.31424550	-76.99878648	166.93716781
0.28000000	2197.32646053	2086.11993251	1866.39443800	1316.89020947	1535.81549473	1326.00559770	1318.08127364	174.27275902	-77.01081626	166.96457197
0.29000000	2197.76915554	2075.16444615	1866.80484238	1316.87705909	1536.50811547	1327.02873917	1318.19907586	174.23338421	-77.02261520	166.99005481
0.30000000	2198.28837760	2065.36403025	1867.18578766	1316.97126054	1536.98930244	1327.95537479	1318.34325740	174.19605562	-77.03418755	167.01379783
0.31000000	2198.87622068	2056.67930849	1867.53713652	1317.16534932	1537.27280058	1328.78823642	1318.51116362	174.16070776	-77.04553751	167.03598236
0.32000000	2199.52477872	2049.07090453	1867.85875167	1317.45186095	1537.37235484	1329.53005589	1318.70013987	174.12727511	-77.05666928	167.05678971
0.33000000	2200.22614568	2042.49944206	1868.15049579	1317.82333095	1537.30171017	1330.18356505	1318.90753153	174.09569219	-77.06758706	167.07640123
0.34000000	2200.97241551	2036.92554475	1868.41223160	1318.27229483	1537.07461150	1330.75149575	1319.13068395	174.06589350	-77.07829505	167.09499822
0.35000000	2201.75568218	2032.30983627	1868.64382177	1318.79128812	1536.70480378	1331.23657984	1319.36694251	174.03781353	-77.08879746	167.11276202
0.36000000	2202.56803964	2028.61294031	1868.84512901	1319.37284633	1536.20603196	1331.64154917	1319.61365256	174.01138679	-77.09909847	167.12987394
0.37000000	2203.40158185	2025.79548054	1869.01601601	1320.00950497	1535.59204098	1331.96913557	1319.86815946	173.98654777	-77.10920230	167.14651533
0.38000000	2204.24840276	2023.81808063	1869.15634548	1320.69379957	1534.87657577	1332.22207091	1320.12780859	173.96323099	-77.11911315	167.16286750
0.39000000	2205.10059632	2022.64136426	1869.26598009	1321.41826563	1534.07338130	1332.40308702	1320.38994531	173.94137093	-77.12883521	167.17911177
0.40000000	2205.95025649	2022.22595511	1869.34478256	1322.17543869	1533.19620249	1332.51491575	1320.65191497	173.92090211	-77.13837269	167.19542948
0.41000000	2206.78947724	2022.53247685	1869.39261558	1322.95785424	1532.25878430	1332.56028896	1320.91106295	173.90175902	-77.14772979	167.21200195
0.42000000	2207.61035251	2023.52155316	1869.40934184	1323.75804782	1531.27487167	1332.54193848	1321.16473460	173.88387617	-77.15691070	167.22901050
0.43000000	2208.40497625	2025.15380772	1869.39482404	1324.56855494	1530.25820954	1332.46259616	1321.41027530	173.86718805	-77.16591963	167.24663645
0.44000000	2209.16544244	2027.38986420	1869.34892488	1325.38191111	1529.22254286	1332.32499386	1321.64503040	173.85162916	-77.17476078	167.26506115
0.45000000	2209.88384501	2030.19034627	1869.27150705	1326.19065186	1528.18161656	1332.13186341	1321.86634526	173.83713402	-77.18343835	167.28446590
0.46000000	2210.55227794	2033.51587762	1869.16243324	1326.98731269	1527.14917561	1331.88593667	1322.07156526	173.82363711	-77.19195655	167.30503203
0.47000000	2211.16283517	2037.32708192	1869.02156616	1327.76442913	1526.13896493	1331.58994549	1322.25803576	173.81107294	-77.20031956	167.32694088
0.48000000	2211.70761065	2041.58458284	1868.84876850	1328.51453669	1525.16472947	1331.24662170	1322.42310211	173.79937602	-77.20853160	167.35037376
0.49000000	2212.17869836	2046.24900407	1868.64390295	1329.23017089	1524.24021417	1330.85869716	1322.56410969	173.78848083	-77.21659686	167.37551200
0.50000000	2212.56819223	2051.28096927	1868.40683221	1329.90386725	1523.37916399	1330.42890371	1322.67840385	173.77832189	-77.22451955	167.40253693
0.51000000	2212.86818623	2056.64110212	1868.13741898	1330.52816129	1522.59532386	1329.95997320	1322.76332997	173.76883370	-77.23230386	167.43162987
0.52000000	2213.07077431	2062.29002631	1867.83552596	1331.09558851	1521.90243873	1329.45463749	1322.81623340	173.75995075	-77.23995400	167.46297215
0.53000000	2213.16805044	2068.18836550	1867.50101583	1331.59868444	1521.31425355	1328.91562840	1322.83445950	173.75160754	-77.24747416	167.49674508
0.54000000	2213.15210855	2074.29674337	1867.13375130	1332.02998460	1520.84451324	1328.34567780	1322.81535365	173.74373859	-77.25486856	167.53313001
0.55000000	2213.01504262	2080.57578360	1866.73359506	1332.38202450	1520.50696277	1327.74751753	1322.75626121	173.73627838	-77.26214138	167.57230825
0.56000000	2212.74894659	2086.98610986	1866.30040981	1332.64733966	1520.31534707	1327.12387943	1322.65452753	173.72916142	-77.26929683	167.61446112
0.57000000	2212.34591443	2093.48834583	1865.83405824	1332.81846559	1520.28341109	1326.47749536	1322.50749799	173.72232222	-77.27633911	167.65976996
0.58000000	2211.79804008	2100.04311519	1865.33440305	1332.88793782	1520.42489978	1325.81109716	1322.31251794	173.71569526	-77.28327242	167.70841609
0.59000000	2211.09741751	2106.61104161	1864.80130693	1332.84829186	1520.75355806	1325.12741668	1322.06693275	173.70921506	-77.29010097	167.76058083
0.60000000	2210.23614067	2113.15274877	1864.23463259	1332.69206322	1521.28313090	1324.42918576	1321.76808779	173.70281612	-77.29682894	167.81644552
0.61000000	2209.20630351	2119.62886034	1863.63424271	1332.41178743	1522.02736323	1323.71913625	1321.41332842	173.69643293	-77.30346056	167.87619146
0.62000000	2208	2126	1863	1332	1523	1323	1321	173.69000000	-77.31000000	167.94000000
0.63000000	2206.62077269	2132.22328731	1862.33577144	1331.45309178	1524.20304119	1322.27657518	1320.52855788	173.68346806	-77.31645474	168.00785614
0.64000000	2205.11795857	2138.24182536	1861.66144117	1330.78287496	1525.59150691	1321.56192521	1320.01189736	173.67685280	-77.32284526	168.07895964
0.65000000	2203.55234323	2143.99521312	1861.00089765	1330.00501704	1527.10867232	1320.87117987	1319.46602374	173.67018613	-77.32919533	168.15231396
0.66000000	2201.98471226	2149.42304957	1860.37802931	1329.13518557	1528.69781257	1320.21946890	1318.90694228	173.66349997	-77.33552868	168.22692253
0.67000000	2200.47585125	2154.46493369	1859.81672459	1328.18904803	1530.30220283	1319.62192207	1318.35065828	173.65682623	-77.34186907	168.30178881
0.68000000	2199.08654581	2159.06046443	1859.34087194	1327.18227197	1531.86511824	1319.09366912	1317.81317703	173.65019683	-77.34824026	168.37591624
0.69000000	2197.87758151	2163.14924079	1858.97435979	1326.13052489	1533.32983395	1318.64983982	1317.31050381	173.64364370	-77.35466599	168.44830828
0.70000000	2196.90974395	2166.67086173	1858.74107658	1325.04947431	1534.63962513	1318.30556393	1316.85864390	173.63719873	-77.36117002	168.51796837
0.71000000	2196.24381872	2169.56492622	1858.66491076	1323.95478776	1535.73776693	1318.07597119	1316.47360260	173.63089386	-77.36777609	168.58389996
0.72000000	2195.94059142	2171.77103325	1858.76975077	1322.86213274	1536.56753449	1317.97619136	1316.17138518	173.62476100	-77.37450797	168.64510649
0.73000000	2196.06067270	2173.22899996	1859.07940332	1321.78718052	1537.07234896	1318.02130958	1315.96795244	173.61883236	-77.38138921	168.70059307
0.74000000	2196.62758800	2173.92489920	1859.60034920	1320.74639699	1537.22657982	1318.21694900	1315.86983217	173.61320437	-77.38840473	168.74971423
0.75000000	2197.58212071	2173.94800630	1860.30041281	1319.75802094	1537.07364635	1318.54762190	1315.86250588	173.60811669	-77.39545319	168.79260418
0.76000000	2198.85385867	2173.40156056	1861.14218807	1318.84053104	1536.66631077	1318.99498411	1315.92860737	173.60382837	-77.40242158	168.82950259
0.77000000	2200.37238974	2172.38880130	1862.08826889	1318.01240596	1536.05733526	1319.54069147	1316.05077046	173.60059844	-77.40919690	168.86064917
0.78000000	2202.06730177	2171.01296783	1863.10124919	1317.29212436	1535.29948202	1320.16639982	1316.21162895	173.59868595	-77.41566613	168.88628360
0.79000000	2203.86818260	2169.37729947	1864.14372289	1316.69816493	1534.44551324	1320.85376498	1316.39381667	173.59834994	-77.42171627	168.90664558
0.80000000	2205.70462008	2167.58503551	1865.17828392	1316.24900634	1533.54819113	1321.58444280	1316.57996742	173.59984946	-77.42723431	168.92197479
